<svg width="207" height="172" viewBox="0 0 207 172" fill="none" xmlns="http://www.w3.org/2000/svg">
<rect width="207" height="172" fill="#1E06D5"/>
<path d="M72 89V67.925H79.5C80.93 67.925 82.18 68.205 83.25 68.765C84.33 69.325 85.16 70.115 85.74 71.135C86.32 72.155 86.61 73.33 86.61 74.66C86.61 76.04 86.325 77.25 85.755 78.29C85.185 79.32 84.365 80.12 83.295 80.69C82.225 81.25 80.965 81.53 79.515 81.53H74.46V89H72ZM79.335 79.265C80.295 79.265 81.135 79.08 81.855 78.71C82.585 78.33 83.145 77.795 83.535 77.105C83.935 76.415 84.135 75.61 84.135 74.69C84.135 73.78 83.935 72.99 83.535 72.32C83.145 71.64 82.585 71.115 81.855 70.745C81.135 70.375 80.295 70.19 79.335 70.19H74.46V79.265H79.335ZM98.3259 73.46H100.666V89H98.3859V86.495C97.7859 87.385 97.0359 88.085 96.1359 88.595C95.2359 89.105 94.2159 89.36 93.0759 89.36C91.6859 89.36 90.4359 89.005 89.3259 88.295C88.2159 87.575 87.3459 86.595 86.7159 85.355C86.0859 84.115 85.7709 82.745 85.7709 81.245C85.7709 79.745 86.0859 78.38 86.7159 77.15C87.3459 75.91 88.2159 74.93 89.3259 74.21C90.4459 73.49 91.6959 73.13 93.0759 73.13C94.2159 73.13 95.2259 73.375 96.1059 73.865C96.9859 74.355 97.7259 75.03 98.3259 75.89V73.46ZM93.2259 87.11C94.2559 87.11 95.1659 86.86 95.9559 86.36C96.7559 85.85 97.3759 85.15 97.8159 84.26C98.2659 83.37 98.4909 82.37 98.4909 81.26C98.4909 80.15 98.2659 79.15 97.8159 78.26C97.3759 77.36 96.7559 76.655 95.9559 76.145C95.1659 75.635 94.2609 75.38 93.2409 75.38C92.2309 75.38 91.3359 75.635 90.5559 76.145C89.7759 76.655 89.1709 77.36 88.7409 78.26C88.3109 79.15 88.0959 80.15 88.0959 81.26C88.0959 82.38 88.3059 83.385 88.7259 84.275C89.1559 85.155 89.7559 85.85 90.5259 86.36C91.3059 86.86 92.2059 87.11 93.2259 87.11ZM105.84 89H103.515V66.56H105.84V89ZM109.926 82.085C110.046 83.095 110.356 83.985 110.856 84.755C111.356 85.525 111.991 86.125 112.761 86.555C113.541 86.985 114.396 87.2 115.326 87.2C116.206 87.2 117.021 87.045 117.771 86.735C118.531 86.415 119.196 85.975 119.766 85.415L120.996 87.125C120.236 87.845 119.366 88.405 118.386 88.805C117.416 89.195 116.356 89.39 115.206 89.39C113.796 89.39 112.511 89.03 111.351 88.31C110.191 87.59 109.276 86.61 108.606 85.37C107.946 84.13 107.616 82.77 107.616 81.29C107.616 79.79 107.926 78.42 108.546 77.18C109.166 75.93 110.021 74.945 111.111 74.225C112.201 73.495 113.426 73.13 114.786 73.13C116.206 73.13 117.456 73.48 118.536 74.18C119.616 74.87 120.446 75.83 121.026 77.06C121.616 78.29 121.911 79.68 121.911 81.23C121.911 81.52 121.891 81.805 121.851 82.085H109.926ZM114.861 75.32C114.031 75.32 113.271 75.515 112.581 75.905C111.901 76.285 111.331 76.83 110.871 77.54C110.421 78.24 110.121 79.05 109.971 79.97H119.541C119.401 79.03 119.116 78.21 118.686 77.51C118.266 76.81 117.726 76.27 117.066 75.89C116.416 75.51 115.681 75.32 114.861 75.32ZM126.45 89H124.095V75.62H121.455V73.46H124.08V69.605L126.45 69.11V73.46H130.38V75.62H126.45V89ZM133.901 89H131.546V75.62H128.906V73.46H131.531V69.605L133.901 69.11V73.46H137.831V75.62H133.901V89Z" fill="#E6EBFF"/>
<path d="M84.0879 160.045C84.1204 160.045 84.1367 160.082 84.1367 160.156C84.1367 160.224 84.1211 160.273 84.0898 160.305C84.0794 160.315 84.0638 160.32 84.043 160.32C84.0208 160.32 84 160.322 83.9805 160.324C83.9622 160.327 83.9466 160.332 83.9336 160.34C83.9128 160.352 83.8965 160.373 83.8848 160.404L83.0605 162.508C83.0189 162.616 82.9512 162.701 82.8574 162.764C82.7637 162.827 82.6484 162.859 82.5117 162.859C82.3294 162.859 82.2018 162.799 82.1289 162.68C82.1029 162.635 82.0898 162.588 82.0898 162.537C82.0885 162.535 82.0879 162.533 82.0879 162.531C82.0879 162.483 82.0951 162.443 82.1094 162.41C82.1224 162.376 82.1406 162.348 82.1641 162.324C82.2161 162.272 82.2728 162.246 82.334 162.246H82.3379C82.4004 162.247 82.4486 162.257 82.4824 162.273C82.515 162.292 82.5417 162.315 82.5625 162.344C82.599 162.397 82.6178 162.469 82.6191 162.559C82.6608 162.559 82.6966 162.535 82.7266 162.488C82.7578 162.441 82.7845 162.391 82.8066 162.338C82.8301 162.285 82.8496 162.234 82.8652 162.186C82.8822 162.139 82.8958 162.097 82.9062 162.061C82.918 162.024 82.9258 162 82.9297 161.988L82.2812 160.32H82.0625C82.0286 160.32 82.0117 160.281 82.0117 160.203C82.0117 160.139 82.0208 160.097 82.0391 160.076C82.0573 160.055 82.0736 160.045 82.0879 160.045H82.9355C82.9681 160.045 82.9844 160.082 82.9844 160.156C82.9844 160.223 82.974 160.267 82.9531 160.289C82.9336 160.31 82.9173 160.32 82.9043 160.32C82.7897 160.32 82.7324 160.348 82.7324 160.404L83.1289 161.564L83.5918 160.32H83.3359C83.3021 160.32 83.2852 160.283 83.2852 160.207C83.2852 160.139 83.2936 160.096 83.3105 160.076C83.3288 160.055 83.3438 160.045 83.3555 160.045H84.0879ZM85.127 162.039C84.9876 162.039 84.8652 162.013 84.7598 161.961C84.6543 161.909 84.5651 161.836 84.4922 161.742C84.3464 161.553 84.2734 161.306 84.2734 161C84.2734 160.68 84.3724 160.43 84.5703 160.25C84.75 160.087 84.9766 160.006 85.25 160.006H85.2559C85.5111 160.006 85.7161 160.103 85.8711 160.297C86.0195 160.482 86.0938 160.721 86.0938 161.016C86.0938 161.344 86.0026 161.599 85.8203 161.781C85.6484 161.953 85.4173 162.039 85.127 162.039ZM84.8438 160.443C84.7943 160.495 84.7533 160.567 84.7207 160.658C84.6895 160.748 84.6738 160.859 84.6738 160.99C84.6738 161.123 84.6862 161.236 84.7109 161.328C84.737 161.419 84.7721 161.495 84.8164 161.555C84.9062 161.677 85.0306 161.738 85.1895 161.738C85.3535 161.738 85.4805 161.667 85.5703 161.523C85.6523 161.393 85.6934 161.223 85.6934 161.012C85.6921 160.659 85.5885 160.438 85.3828 160.348C85.3203 160.32 85.2572 160.307 85.1934 160.307C85.1283 160.307 85.0658 160.316 85.0059 160.336C84.9473 160.355 84.8932 160.391 84.8438 160.443ZM87.8828 161.812C87.6758 161.964 87.4889 162.039 87.3223 162.039C86.9941 162.039 86.7832 161.908 86.6895 161.645C86.6582 161.557 86.6426 161.456 86.6426 161.34V160.346H86.3672C86.319 160.346 86.2949 160.296 86.2949 160.197C86.2949 160.132 86.3079 160.096 86.334 160.09C86.5527 160.034 86.7526 160.006 86.9336 160.006C86.9909 160.006 87.0208 160.058 87.0234 160.162V161.197C87.0234 161.451 87.0885 161.603 87.2188 161.652C87.2578 161.668 87.3066 161.676 87.3652 161.676C87.4225 161.676 87.4772 161.669 87.5293 161.656C87.5827 161.643 87.6302 161.628 87.6719 161.609C87.7109 161.59 87.7461 161.569 87.7773 161.547L87.8613 161.484V160.346H87.5938C87.5404 160.346 87.5137 160.298 87.5137 160.201C87.5137 160.14 87.5306 160.103 87.5645 160.09C87.5996 160.076 87.6419 160.063 87.6914 160.053C87.7409 160.044 87.7923 160.035 87.8457 160.027C87.9473 160.014 88.0286 160.007 88.0898 160.006H88.0957C88.1517 160.006 88.1862 160.013 88.1992 160.027C88.2148 160.04 88.2253 160.059 88.2305 160.082C88.2383 160.115 88.2422 160.172 88.2422 160.254V161.725H88.5703C88.6055 161.725 88.623 161.767 88.623 161.852C88.623 161.943 88.5964 161.992 88.543 162C88.4102 162.021 88.2917 162.031 88.1875 162.031C88.0833 162.031 88.0221 162.026 88.0039 162.016C87.9857 162.005 87.9701 161.991 87.957 161.973C87.9362 161.944 87.9115 161.891 87.8828 161.812ZM89.4902 160.15L89.4883 160.229C89.4883 160.244 89.4876 160.26 89.4863 160.275C89.4863 160.291 89.4863 160.305 89.4863 160.318C89.6387 160.179 89.7917 160.083 89.9453 160.031C89.9948 160.016 90.0462 160.007 90.0996 160.006H90.1035C90.1543 160.006 90.1999 160.016 90.2402 160.035C90.2819 160.056 90.3151 160.081 90.3398 160.109C90.3841 160.161 90.4062 160.215 90.4062 160.271C90.4062 160.329 90.3991 160.374 90.3848 160.406C90.3704 160.439 90.3503 160.467 90.3242 160.49C90.2695 160.541 90.2155 160.566 90.1621 160.566C90.1074 160.566 90.0658 160.559 90.0371 160.545C90.0085 160.529 89.9831 160.51 89.9609 160.486C89.9141 160.437 89.8906 160.382 89.8906 160.32C89.8151 160.355 89.7578 160.396 89.7188 160.441C89.6797 160.487 89.6471 160.529 89.6211 160.568L89.5352 160.701V161.725H90.0098C90.0397 161.725 90.0547 161.764 90.0547 161.844C90.0547 161.908 90.0449 161.95 90.0254 161.971C90.0072 161.99 89.9902 162 89.9746 162H88.8379C88.8014 162 88.7832 161.959 88.7832 161.877C88.7845 161.817 88.8021 161.771 88.8359 161.738C88.8464 161.729 88.8691 161.725 88.9043 161.725C88.9395 161.725 88.9753 161.723 89.0117 161.721C89.0495 161.717 89.0788 161.712 89.0996 161.705C89.1361 161.693 89.1543 161.672 89.1543 161.641V160.354H88.8105C88.7598 160.354 88.7344 160.303 88.7344 160.201C88.7344 160.136 88.7507 160.096 88.7832 160.082C88.8171 160.068 88.8607 160.056 88.9141 160.047C88.9688 160.036 89.0247 160.029 89.082 160.023C89.1914 160.013 89.278 160.007 89.3418 160.006H89.3574C89.4108 160.006 89.4427 160.009 89.4531 160.016C89.4661 160.021 89.4753 160.03 89.4805 160.043C89.487 160.056 89.4902 160.084 89.4902 160.127V160.15ZM91.4082 162.855C91.373 162.855 91.3555 162.816 91.3555 162.736C91.3555 162.674 91.3652 162.632 91.3848 162.611C91.4043 162.59 91.4212 162.58 91.4355 162.58C91.5983 162.58 91.6908 162.565 91.7129 162.535C91.7207 162.525 91.7246 162.512 91.7246 162.496V160.346H91.3789C91.3398 160.344 91.3151 160.312 91.3047 160.25C91.3021 160.232 91.3001 160.212 91.2988 160.191C91.2988 160.13 91.3138 160.095 91.3438 160.086C91.3737 160.076 91.4108 160.066 91.4551 160.057C91.5007 160.048 91.5521 160.039 91.6094 160.031C91.7318 160.014 91.8294 160.006 91.9023 160.006C91.974 160.006 92.0156 160.009 92.0273 160.016C92.0404 160.021 92.0495 160.031 92.0547 160.047C92.0612 160.062 92.0645 160.101 92.0645 160.162V160.195C92.2428 160.094 92.3854 160.034 92.4922 160.016C92.5312 160.008 92.5866 160.004 92.6582 160.004H92.6758C92.7565 160.005 92.8457 160.029 92.9434 160.076C93.041 160.122 93.1257 160.188 93.1973 160.273C93.3483 160.456 93.4238 160.702 93.4238 161.012C93.4238 161.335 93.3346 161.587 93.1562 161.77C92.9883 161.941 92.7682 162.027 92.4961 162.027C92.3893 162.027 92.2786 161.998 92.1641 161.939C92.138 161.926 92.1185 161.917 92.1055 161.912V162.58H92.5391C92.5742 162.58 92.5918 162.62 92.5918 162.699C92.5918 162.762 92.582 162.803 92.5625 162.824C92.543 162.845 92.526 162.855 92.5117 162.855H91.4082ZM92.1055 161.619C92.1953 161.691 92.3177 161.727 92.4727 161.727C92.7201 161.727 92.8867 161.608 92.9727 161.371C93.0065 161.277 93.0234 161.16 93.0234 161.018C93.0234 160.877 93.0072 160.764 92.9746 160.68C92.9421 160.594 92.901 160.526 92.8516 160.477C92.7656 160.389 92.6615 160.346 92.5391 160.346H92.5332C92.4212 160.346 92.3138 160.38 92.2109 160.449C92.1719 160.475 92.1367 160.507 92.1055 160.543V161.619ZM94.3242 160.281C94.3398 160.315 94.3477 160.354 94.3477 160.396C94.3477 160.439 94.3411 160.477 94.3281 160.51C94.3125 160.542 94.293 160.57 94.2695 160.594C94.2201 160.643 94.1569 160.669 94.0801 160.67C93.959 160.67 93.8763 160.617 93.832 160.51C93.819 160.477 93.8125 160.437 93.8125 160.389C93.8125 160.342 93.8262 160.298 93.8535 160.256C93.8809 160.214 93.9167 160.178 93.9609 160.148C94.0065 160.118 94.0573 160.094 94.1133 160.076C94.1706 160.058 94.2285 160.044 94.2871 160.033C94.39 160.015 94.5026 160.006 94.625 160.006C94.7461 160.006 94.8509 160.025 94.9395 160.064C95.0293 160.104 95.1003 160.156 95.1523 160.223C95.2422 160.339 95.2871 160.503 95.2871 160.715V161.725H95.6152C95.6504 161.725 95.668 161.763 95.668 161.84C95.668 161.874 95.6615 161.908 95.6484 161.941C95.6354 161.974 95.6152 161.993 95.5879 162C95.515 162.021 95.4108 162.031 95.2754 162.031C95.1387 162.031 95.0625 162.029 95.0469 162.023C95.0312 162.02 95.0169 162.012 95.0039 162C94.9792 161.978 94.9544 161.933 94.9297 161.865C94.7708 161.981 94.5794 162.039 94.3555 162.039C94.1549 162.039 93.9974 161.986 93.8828 161.879C93.7747 161.78 93.7207 161.65 93.7207 161.49V161.484C93.7207 161.285 93.7943 161.13 93.9414 161.018C94.0703 160.919 94.2311 160.869 94.4238 160.869H94.9062C94.9062 160.652 94.888 160.512 94.8516 160.449C94.8164 160.385 94.7734 160.342 94.7227 160.318C94.6732 160.294 94.6068 160.281 94.5234 160.281H94.3242ZM94.4258 161.738C94.5898 161.738 94.75 161.673 94.9062 161.543V161.162H94.4805C94.3763 161.162 94.2995 161.18 94.25 161.215C94.1602 161.277 94.1152 161.35 94.1152 161.432C94.1152 161.585 94.179 161.682 94.3066 161.721C94.3444 161.732 94.3841 161.738 94.4258 161.738ZM95.7227 162C95.6888 162 95.6719 161.96 95.6719 161.881C95.6719 161.818 95.6816 161.777 95.7012 161.756C95.7207 161.735 95.7376 161.725 95.752 161.725H95.7715C95.9225 161.725 96.0078 161.71 96.0273 161.68C96.0352 161.669 96.0391 161.656 96.0391 161.641V159.248H95.6953C95.6589 159.247 95.6341 159.214 95.6211 159.148C95.6185 159.13 95.6165 159.111 95.6152 159.092C95.6152 159.032 95.6328 158.995 95.668 158.982C95.7031 158.968 95.7493 158.956 95.8066 158.947C95.8652 158.938 95.9258 158.931 95.9883 158.926C96.1081 158.915 96.2227 158.91 96.332 158.908C96.3867 158.908 96.4154 158.964 96.418 159.074C96.418 159.107 96.4186 159.141 96.4199 159.176V161.725H96.748C96.7819 161.725 96.7988 161.764 96.7988 161.844C96.7988 161.906 96.7891 161.948 96.7695 161.969C96.75 161.99 96.7331 162 96.7188 162H95.7227ZM96.9863 160.996C96.9863 160.835 97.013 160.691 97.0664 160.566C97.1185 160.444 97.1888 160.341 97.2773 160.258C97.457 160.091 97.679 160.007 97.9434 160.006H97.9492C98.1914 160.006 98.3783 160.082 98.5098 160.234C98.6413 160.385 98.707 160.604 98.707 160.889C98.707 160.95 98.679 161.003 98.623 161.047C98.5684 161.09 98.4993 161.111 98.416 161.111H97.3867C97.4102 161.416 97.5163 161.611 97.7051 161.697C97.765 161.725 97.8281 161.738 97.8945 161.738C97.9609 161.738 98.0202 161.731 98.0723 161.717C98.1243 161.701 98.1745 161.682 98.2227 161.66C98.2708 161.637 98.3177 161.611 98.3633 161.582C98.4583 161.522 98.5143 161.492 98.5312 161.492C98.5469 161.493 98.5638 161.501 98.582 161.516C98.5977 161.531 98.6133 161.549 98.6289 161.57C98.6628 161.62 98.6803 161.661 98.6816 161.695V161.699C98.6816 161.73 98.6745 161.751 98.6602 161.762C98.4219 161.947 98.151 162.039 97.8477 162.039C97.5755 162.039 97.3633 161.944 97.2109 161.754C97.0612 161.569 96.9863 161.316 96.9863 160.996ZM98.3066 160.818V160.811C98.3066 160.553 98.2318 160.394 98.082 160.334C98.0352 160.316 97.9831 160.307 97.9258 160.307C97.8685 160.307 97.8086 160.317 97.7461 160.338C97.6836 160.36 97.6263 160.392 97.5742 160.434C97.4583 160.529 97.3958 160.657 97.3867 160.818H98.3066ZM99.6875 162.039C99.4206 162.039 99.2871 161.859 99.2871 161.498V160.346H98.916C98.916 160.202 98.9245 160.117 98.9414 160.088C98.9596 160.059 98.9792 160.045 99 160.045H99.0195C99.1797 160.045 99.276 160.03 99.3086 160C99.3216 159.99 99.3288 159.977 99.3301 159.961L99.4141 159.529C99.4297 159.458 99.5143 159.422 99.668 159.422V160.045H100.195C100.228 160.045 100.244 160.083 100.244 160.16C100.243 160.236 100.227 160.292 100.195 160.328C100.186 160.34 100.174 160.346 100.16 160.346H99.668V161.498C99.668 161.644 99.7109 161.717 99.7969 161.717C99.8945 161.717 99.9635 161.71 100.004 161.695C100.046 161.68 100.074 161.672 100.09 161.672C100.104 161.672 100.118 161.677 100.133 161.688C100.148 161.697 100.161 161.709 100.172 161.725C100.194 161.758 100.205 161.794 100.205 161.83C100.205 161.869 100.193 161.895 100.168 161.906C100 161.995 99.8398 162.039 99.6875 162.039ZM101.117 162.039C100.85 162.039 100.717 161.859 100.717 161.498V160.346H100.346C100.346 160.202 100.354 160.117 100.371 160.088C100.389 160.059 100.409 160.045 100.43 160.045H100.449C100.609 160.045 100.706 160.03 100.738 160C100.751 159.99 100.758 159.977 100.76 159.961L100.844 159.529C100.859 159.458 100.944 159.422 101.098 159.422V160.045H101.625C101.658 160.045 101.674 160.083 101.674 160.16C101.673 160.236 101.656 160.292 101.625 160.328C101.616 160.34 101.604 160.346 101.59 160.346H101.098V161.498C101.098 161.644 101.141 161.717 101.227 161.717C101.324 161.717 101.393 161.71 101.434 161.695C101.475 161.68 101.504 161.672 101.52 161.672C101.534 161.672 101.548 161.677 101.562 161.688C101.578 161.697 101.591 161.709 101.602 161.725C101.624 161.758 101.635 161.794 101.635 161.83C101.635 161.869 101.622 161.895 101.598 161.906C101.43 161.995 101.27 162.039 101.117 162.039ZM102.074 162.031C101.978 161.98 101.93 161.896 101.93 161.779C101.93 161.702 101.957 161.638 102.012 161.586C102.066 161.534 102.123 161.508 102.182 161.508C102.24 161.508 102.287 161.515 102.322 161.529C102.357 161.544 102.388 161.562 102.414 161.586C102.471 161.638 102.501 161.702 102.502 161.779C102.502 162.008 102.329 162.258 101.984 162.527C101.947 162.527 101.917 162.517 101.896 162.496C101.877 162.475 101.867 162.447 101.867 162.412C102.005 162.257 102.074 162.13 102.074 162.031ZM104.58 162.039C104.441 162.039 104.318 162.013 104.213 161.961C104.107 161.909 104.018 161.836 103.945 161.742C103.799 161.553 103.727 161.306 103.727 161C103.727 160.68 103.826 160.43 104.023 160.25C104.203 160.087 104.43 160.006 104.703 160.006H104.709C104.964 160.006 105.169 160.103 105.324 160.297C105.473 160.482 105.547 160.721 105.547 161.016C105.547 161.344 105.456 161.599 105.273 161.781C105.102 161.953 104.87 162.039 104.58 162.039ZM104.297 160.443C104.247 160.495 104.206 160.567 104.174 160.658C104.143 160.748 104.127 160.859 104.127 160.99C104.127 161.123 104.139 161.236 104.164 161.328C104.19 161.419 104.225 161.495 104.27 161.555C104.359 161.677 104.484 161.738 104.643 161.738C104.807 161.738 104.934 161.667 105.023 161.523C105.105 161.393 105.146 161.223 105.146 161.012C105.145 160.659 105.042 160.438 104.836 160.348C104.773 160.32 104.71 160.307 104.646 160.307C104.581 160.307 104.519 160.316 104.459 160.336C104.4 160.355 104.346 160.391 104.297 160.443ZM107.336 161.812C107.129 161.964 106.942 162.039 106.775 162.039C106.447 162.039 106.236 161.908 106.143 161.645C106.111 161.557 106.096 161.456 106.096 161.34V160.346H105.82C105.772 160.346 105.748 160.296 105.748 160.197C105.748 160.132 105.761 160.096 105.787 160.09C106.006 160.034 106.206 160.006 106.387 160.006C106.444 160.006 106.474 160.058 106.477 160.162V161.197C106.477 161.451 106.542 161.603 106.672 161.652C106.711 161.668 106.76 161.676 106.818 161.676C106.876 161.676 106.93 161.669 106.982 161.656C107.036 161.643 107.083 161.628 107.125 161.609C107.164 161.59 107.199 161.569 107.23 161.547L107.314 161.484V160.346H107.047C106.993 160.346 106.967 160.298 106.967 160.201C106.967 160.14 106.984 160.103 107.018 160.09C107.053 160.076 107.095 160.063 107.145 160.053C107.194 160.044 107.245 160.035 107.299 160.027C107.4 160.014 107.482 160.007 107.543 160.006H107.549C107.605 160.006 107.639 160.013 107.652 160.027C107.668 160.04 107.678 160.059 107.684 160.082C107.691 160.115 107.695 160.172 107.695 160.254V161.725H108.023C108.059 161.725 108.076 161.767 108.076 161.852C108.076 161.943 108.049 161.992 107.996 162C107.863 162.021 107.745 162.031 107.641 162.031C107.536 162.031 107.475 162.026 107.457 162.016C107.439 162.005 107.423 161.991 107.41 161.973C107.389 161.944 107.365 161.891 107.336 161.812ZM108.943 160.15L108.941 160.229C108.941 160.244 108.941 160.26 108.939 160.275C108.939 160.291 108.939 160.305 108.939 160.318C109.092 160.179 109.245 160.083 109.398 160.031C109.448 160.016 109.499 160.007 109.553 160.006H109.557C109.607 160.006 109.653 160.016 109.693 160.035C109.735 160.056 109.768 160.081 109.793 160.109C109.837 160.161 109.859 160.215 109.859 160.271C109.859 160.329 109.852 160.374 109.838 160.406C109.824 160.439 109.803 160.467 109.777 160.49C109.723 160.541 109.669 160.566 109.615 160.566C109.561 160.566 109.519 160.559 109.49 160.545C109.462 160.529 109.436 160.51 109.414 160.486C109.367 160.437 109.344 160.382 109.344 160.32C109.268 160.355 109.211 160.396 109.172 160.441C109.133 160.487 109.1 160.529 109.074 160.568L108.988 160.701V161.725H109.463C109.493 161.725 109.508 161.764 109.508 161.844C109.508 161.908 109.498 161.95 109.479 161.971C109.46 161.99 109.443 162 109.428 162H108.291C108.255 162 108.236 161.959 108.236 161.877C108.238 161.817 108.255 161.771 108.289 161.738C108.299 161.729 108.322 161.725 108.357 161.725C108.393 161.725 108.428 161.723 108.465 161.721C108.503 161.717 108.532 161.712 108.553 161.705C108.589 161.693 108.607 161.672 108.607 161.641V160.354H108.264C108.213 160.354 108.188 160.303 108.188 160.201C108.188 160.136 108.204 160.096 108.236 160.082C108.27 160.068 108.314 160.056 108.367 160.047C108.422 160.036 108.478 160.029 108.535 160.023C108.645 160.013 108.731 160.007 108.795 160.006H108.811C108.864 160.006 108.896 160.009 108.906 160.016C108.919 160.021 108.928 160.03 108.934 160.043C108.94 160.056 108.943 160.084 108.943 160.127V160.15ZM112.018 160.281H111.836C111.701 160.281 111.584 160.333 111.486 160.436C111.361 160.567 111.299 160.757 111.299 161.004C111.299 161.366 111.4 161.595 111.602 161.691C111.665 161.723 111.73 161.738 111.797 161.738C111.863 161.738 111.923 161.731 111.977 161.717C112.03 161.702 112.082 161.684 112.133 161.66C112.185 161.638 112.234 161.613 112.281 161.584L112.42 161.5C112.425 161.496 112.434 161.494 112.447 161.494C112.459 161.494 112.474 161.502 112.492 161.518C112.51 161.532 112.527 161.549 112.543 161.57C112.577 161.62 112.594 161.661 112.594 161.693C112.594 161.726 112.587 161.748 112.572 161.76C112.324 161.946 112.053 162.039 111.76 162.039C111.488 162.039 111.275 161.945 111.121 161.756C110.973 161.574 110.898 161.323 110.898 161.004C110.898 160.691 110.993 160.444 111.182 160.262C111.359 160.092 111.585 160.007 111.859 160.006C112.154 160.007 112.357 160.072 112.471 160.199C112.514 160.249 112.535 160.301 112.535 160.357C112.535 160.413 112.529 160.458 112.516 160.49C112.5 160.523 112.48 160.551 112.457 160.574C112.405 160.625 112.342 160.65 112.268 160.65C112.193 160.65 112.13 160.625 112.078 160.574C112.026 160.525 112 160.475 112 160.426C112 160.376 112.006 160.328 112.018 160.281ZM113.693 162.039C113.554 162.039 113.432 162.013 113.326 161.961C113.221 161.909 113.132 161.836 113.059 161.742C112.913 161.553 112.84 161.306 112.84 161C112.84 160.68 112.939 160.43 113.137 160.25C113.316 160.087 113.543 160.006 113.816 160.006H113.822C114.077 160.006 114.283 160.103 114.438 160.297C114.586 160.482 114.66 160.721 114.66 161.016C114.66 161.344 114.569 161.599 114.387 161.781C114.215 161.953 113.984 162.039 113.693 162.039ZM113.41 160.443C113.361 160.495 113.32 160.567 113.287 160.658C113.256 160.748 113.24 160.859 113.24 160.99C113.24 161.123 113.253 161.236 113.277 161.328C113.303 161.419 113.339 161.495 113.383 161.555C113.473 161.677 113.597 161.738 113.756 161.738C113.92 161.738 114.047 161.667 114.137 161.523C114.219 161.393 114.26 161.223 114.26 161.012C114.258 160.659 114.155 160.438 113.949 160.348C113.887 160.32 113.824 160.307 113.76 160.307C113.695 160.307 113.632 160.316 113.572 160.336C113.514 160.355 113.46 160.391 113.41 160.443ZM114.895 162C114.861 162 114.844 161.96 114.844 161.881C114.844 161.818 114.854 161.777 114.873 161.756C114.893 161.735 114.91 161.725 114.924 161.725H114.943C115.094 161.725 115.18 161.71 115.199 161.68C115.207 161.669 115.211 161.656 115.211 161.641V159.248H114.867C114.831 159.247 114.806 159.214 114.793 159.148C114.79 159.13 114.788 159.111 114.787 159.092C114.787 159.032 114.805 158.995 114.84 158.982C114.875 158.968 114.921 158.956 114.979 158.947C115.037 158.938 115.098 158.931 115.16 158.926C115.28 158.915 115.395 158.91 115.504 158.908C115.559 158.908 115.587 158.964 115.59 159.074C115.59 159.107 115.59 159.141 115.592 159.176V161.725H115.92C115.954 161.725 115.971 161.764 115.971 161.844C115.971 161.906 115.961 161.948 115.941 161.969C115.922 161.99 115.905 162 115.891 162H114.895ZM117.01 162.039C116.87 162.039 116.748 162.013 116.643 161.961C116.537 161.909 116.448 161.836 116.375 161.742C116.229 161.553 116.156 161.306 116.156 161C116.156 160.68 116.255 160.43 116.453 160.25C116.633 160.087 116.859 160.006 117.133 160.006H117.139C117.394 160.006 117.599 160.103 117.754 160.297C117.902 160.482 117.977 160.721 117.977 161.016C117.977 161.344 117.885 161.599 117.703 161.781C117.531 161.953 117.3 162.039 117.01 162.039ZM116.727 160.443C116.677 160.495 116.636 160.567 116.604 160.658C116.572 160.748 116.557 160.859 116.557 160.99C116.557 161.123 116.569 161.236 116.594 161.328C116.62 161.419 116.655 161.495 116.699 161.555C116.789 161.677 116.913 161.738 117.072 161.738C117.236 161.738 117.363 161.667 117.453 161.523C117.535 161.393 117.576 161.223 117.576 161.012C117.575 160.659 117.471 160.438 117.266 160.348C117.203 160.32 117.14 160.307 117.076 160.307C117.011 160.307 116.949 160.316 116.889 160.336C116.83 160.355 116.776 160.391 116.727 160.443ZM119.766 161.812C119.559 161.964 119.372 162.039 119.205 162.039C118.877 162.039 118.666 161.908 118.572 161.645C118.541 161.557 118.525 161.456 118.525 161.34V160.346H118.25C118.202 160.346 118.178 160.296 118.178 160.197C118.178 160.132 118.191 160.096 118.217 160.09C118.436 160.034 118.635 160.006 118.816 160.006C118.874 160.006 118.904 160.058 118.906 160.162V161.197C118.906 161.451 118.971 161.603 119.102 161.652C119.141 161.668 119.189 161.676 119.248 161.676C119.305 161.676 119.36 161.669 119.412 161.656C119.465 161.643 119.513 161.628 119.555 161.609C119.594 161.59 119.629 161.569 119.66 161.547L119.744 161.484V160.346H119.477C119.423 160.346 119.396 160.298 119.396 160.201C119.396 160.14 119.413 160.103 119.447 160.09C119.482 160.076 119.525 160.063 119.574 160.053C119.624 160.044 119.675 160.035 119.729 160.027C119.83 160.014 119.911 160.007 119.973 160.006H119.979C120.035 160.006 120.069 160.013 120.082 160.027C120.098 160.04 120.108 160.059 120.113 160.082C120.121 160.115 120.125 160.172 120.125 160.254V161.725H120.453C120.488 161.725 120.506 161.767 120.506 161.852C120.506 161.943 120.479 161.992 120.426 162C120.293 162.021 120.174 162.031 120.07 162.031C119.966 162.031 119.905 162.026 119.887 162.016C119.868 162.005 119.853 161.991 119.84 161.973C119.819 161.944 119.794 161.891 119.766 161.812ZM121.373 160.15L121.371 160.229C121.371 160.244 121.37 160.26 121.369 160.275C121.369 160.291 121.369 160.305 121.369 160.318C121.521 160.179 121.674 160.083 121.828 160.031C121.878 160.016 121.929 160.007 121.982 160.006H121.986C122.037 160.006 122.083 160.016 122.123 160.035C122.165 160.056 122.198 160.081 122.223 160.109C122.267 160.161 122.289 160.215 122.289 160.271C122.289 160.329 122.282 160.374 122.268 160.406C122.253 160.439 122.233 160.467 122.207 160.49C122.152 160.541 122.098 160.566 122.045 160.566C121.99 160.566 121.949 160.559 121.92 160.545C121.891 160.529 121.866 160.51 121.844 160.486C121.797 160.437 121.773 160.382 121.773 160.32C121.698 160.355 121.641 160.396 121.602 160.441C121.562 160.487 121.53 160.529 121.504 160.568L121.418 160.701V161.725H121.893C121.923 161.725 121.938 161.764 121.938 161.844C121.938 161.908 121.928 161.95 121.908 161.971C121.89 161.99 121.873 162 121.857 162H120.721C120.684 162 120.666 161.959 120.666 161.877C120.667 161.817 120.685 161.771 120.719 161.738C120.729 161.729 120.752 161.725 120.787 161.725C120.822 161.725 120.858 161.723 120.895 161.721C120.932 161.717 120.962 161.712 120.982 161.705C121.019 161.693 121.037 161.672 121.037 161.641V160.354H120.693C120.643 160.354 120.617 160.303 120.617 160.201C120.617 160.136 120.633 160.096 120.666 160.082C120.7 160.068 120.743 160.056 120.797 160.047C120.852 160.036 120.908 160.029 120.965 160.023C121.074 160.013 121.161 160.007 121.225 160.006H121.24C121.294 160.006 121.326 160.009 121.336 160.016C121.349 160.021 121.358 160.03 121.363 160.043C121.37 160.056 121.373 160.084 121.373 160.127V160.15ZM122.986 161.738H123.209C123.39 161.738 123.512 161.683 123.574 161.572C123.592 161.538 123.602 161.501 123.602 161.461C123.602 161.421 123.592 161.386 123.572 161.357C123.554 161.327 123.525 161.3 123.484 161.275C123.423 161.238 123.321 161.197 123.178 161.154C123.036 161.11 122.928 161.072 122.854 161.041C122.779 161.008 122.715 160.97 122.66 160.926C122.548 160.832 122.492 160.703 122.492 160.539C122.492 160.298 122.627 160.136 122.896 160.053C122.998 160.021 123.098 160.006 123.197 160.006C123.295 160.006 123.385 160.012 123.469 160.025C123.555 160.038 123.632 160.061 123.699 160.092C123.854 160.163 123.932 160.266 123.932 160.398V160.408C123.932 160.481 123.906 160.543 123.855 160.594C123.806 160.643 123.742 160.669 123.664 160.67C123.542 160.67 123.458 160.617 123.414 160.51C123.401 160.477 123.395 160.451 123.395 160.43C123.395 160.409 123.402 160.359 123.418 160.281H123.225C123.119 160.281 123.041 160.299 122.99 160.336C122.898 160.4 122.852 160.47 122.852 160.547C122.852 160.648 122.943 160.73 123.125 160.793L123.273 160.844C123.525 160.927 123.686 160.998 123.758 161.057C123.829 161.115 123.882 161.179 123.914 161.248C123.947 161.317 123.963 161.396 123.963 161.484C123.963 161.574 123.945 161.652 123.91 161.717C123.876 161.783 123.828 161.84 123.766 161.887C123.632 161.988 123.457 162.039 123.242 162.039C123.052 162.039 122.882 162.01 122.73 161.953C122.618 161.911 122.539 161.852 122.492 161.773C122.469 161.734 122.457 161.692 122.457 161.646C122.457 161.602 122.464 161.564 122.477 161.531C122.492 161.497 122.512 161.469 122.535 161.445C122.586 161.396 122.65 161.371 122.727 161.371C122.802 161.371 122.866 161.396 122.918 161.447C122.97 161.497 122.996 161.553 122.996 161.615V161.617C122.995 161.682 122.992 161.723 122.986 161.738Z" fill="#E7FF0E"/>
</svg>
